<?xml version="1.0" encoding="utf-8"?>
<!-- Generator: Adobe Illustrator 24.0.0, SVG Export Plug-In . SVG Version: 6.00 Build 0)  -->
<svg version="1.1" id="Layer_1" xmlns="http://www.w3.org/2000/svg" xmlns:xlink="http://www.w3.org/1999/xlink" x="0px" y="0px"
	 viewBox="0 0 180 150" style="enable-background:new 0 0 180 150;" xml:space="preserve">
<style type="text/css">
	
		.st0{fill-rule:evenodd;clip-rule:evenodd;fill:#6F6259;stroke:#6F6259;stroke-width:2.121;stroke-linecap:round;stroke-linejoin:round;stroke-miterlimit:3.8637;}
	
		.st1{fill-rule:evenodd;clip-rule:evenodd;fill:#18988B;stroke:#18988B;stroke-width:2.121;stroke-linecap:round;stroke-linejoin:round;stroke-miterlimit:3.8637;}
	.st2{fill-rule:evenodd;clip-rule:evenodd;fill:#988E88;}
	.st3{fill-rule:evenodd;clip-rule:evenodd;fill:#C2D500;}
	.st4{fill-rule:evenodd;clip-rule:evenodd;fill:#E5E991;}
	.st5{fill-rule:evenodd;clip-rule:evenodd;fill:#70B6AC;}
	.st6{fill-rule:evenodd;clip-rule:evenodd;fill:#18988B;}
	.st7{fill-rule:evenodd;clip-rule:evenodd;fill:#6F6259;}
</style>
<g>
	<g>
		<g>
			<path class="st0" d="M42.81,115.36l-2.83,6.81h-1.4l8.26-19.76h0.77l8.29,19.76h-1.48l-2.83-6.81H42.81z M47.14,104.61
				c-0.02,0.02-0.06,0.13-0.11,0.33c-0.26,0.79-0.5,1.46-0.74,2l-3.02,7.3h7.85l-3.02-7.27C47.46,105.43,47.14,104.64,47.14,104.61z
				 M50.69,97.86l-4.01,1.45l-0.93-0.28l4.78-2.63L50.69,97.86z"/>
			<path class="st0" d="M63.06,106.01c-1.52,1.72-2.28,3.83-2.28,6.34c0,2.49,0.86,4.6,2.58,6.34c1.72,1.74,3.81,2.61,6.29,2.61
				c2.12,0,3.89-0.29,5.3-0.88v-8.07h1.32v8.67c-1.59,0.99-3.82,1.48-6.7,1.48c-2.86,0-5.27-0.98-7.25-2.94
				c-1.98-1.98-2.96-4.38-2.96-7.22c0-2.85,0.9-5.25,2.69-7.19c1.79-1.96,4.09-2.94,6.89-2.94c2.2,0,4.42,0.37,6.67,1.1l-0.36,1.1
				c-2.2-0.66-4.3-0.99-6.31-0.99C66.54,103.43,64.58,104.29,63.06,106.01z"/>
			<path class="st1" d="M84.91,119.56c-1.81-1.96-2.72-4.36-2.72-7.22c0-2.85,0.91-5.25,2.72-7.19c1.83-1.96,4.14-2.94,6.92-2.94
				c2.78,0,5.09,0.98,6.92,2.94c1.83,1.94,2.75,4.34,2.75,7.19c0,2.85-0.92,5.26-2.75,7.22c-1.83,1.96-4.14,2.94-6.92,2.94
				C89.04,122.5,86.74,121.52,84.91,119.56z M85.9,106.01c-1.52,1.7-2.28,3.81-2.28,6.34c0,2.52,0.76,4.65,2.28,6.37
				c1.54,1.72,3.51,2.58,5.93,2.58c2.43,0,4.41-0.86,5.93-2.58c1.54-1.72,2.31-3.84,2.31-6.37c0-2.53-0.77-4.64-2.31-6.34
				c-1.52-1.72-3.49-2.58-5.93-2.58C89.39,103.43,87.42,104.29,85.9,106.01z"/>
			<path class="st0" d="M107.58,122.17v-19.54c1.74-0.13,3.19-0.19,4.36-0.19c1.87,0,3.4,0.49,4.61,1.45
				c1.21,0.95,1.81,2.31,1.81,4.06c0,1.19-0.35,2.3-1.04,3.32c-0.7,1.02-1.47,1.84-2.33,2.44c0.68,0.93,1.51,2.05,2.5,3.35
				c1.01,1.28,1.66,2.09,1.95,2.41c1.12,1.19,3.63,1.5,5.04,1.66l-0.8,1.06c-1.12-0.02-2.5,0-3.2-0.31c-0.69-0.33-1.36-0.82-2-1.48
				c-0.62-0.66-2.19-2.71-4.69-6.15c-1.79,0-3.42-0.06-4.88-0.17v8.07H107.58z M112.99,113.17c0.8,0,1.66-0.53,2.58-1.59
				c0.91-1.06,1.37-2.29,1.37-3.68c0-1.41-0.48-2.47-1.43-3.18c-0.93-0.73-2.18-1.1-3.73-1.1c-0.82,0-1.79,0.04-2.88,0.11v9.3
				C110.36,113.12,111.72,113.17,112.99,113.17z"/>
			<path class="st0" d="M128.33,115.36l-2.83,6.81h-1.4l8.26-19.76h0.77l8.29,19.76h-1.48l-2.83-6.81H128.33z M132.66,104.61
				c-0.02,0.02-0.06,0.13-0.11,0.33c-0.26,0.79-0.5,1.46-0.74,2l-3.02,7.3h7.85l-3.02-7.27
				C132.98,105.58,132.66,104.79,132.66,104.61z"/>
		</g>
		<polygon class="st0" points="76.26,113.63 72.65,113.66 72.65,112.35 76.26,112.35 		"/>
	</g>
	<path class="st2" d="M93.97,70.03l-0.04,0c-0.01-4.28-1.43-8.19-3.91-11.29c1.38-1.72,3.08-3.22,4.98-4.34l3.99,6.92
		C96.01,63.08,93.97,66.32,93.97,70.03z"/>
	<path class="st3" d="M93.98,70.03c0,0.01,0,0.02,0,0.03c0,10-8.11,18.1-18.1,18.1c-10,0-18.1-8.1-18.1-18.1
		c0-10,8.11-18.1,18.1-18.1c3.32,0,6.39,0.88,9.11,2.45l-3.98,6.93c-1.55-0.89-3.26-1.39-5.13-1.39c-5.59,0-10.12,4.53-10.12,10.12
		c0,5.59,4.53,10.12,10.12,10.12c5.59,0,10.13-4.53,10.13-10.12c0-0.01,0-0.01,0-0.02L93.98,70.03z"/>
	<path class="st4" d="M84.99,54.41c5.37,3.13,8.99,8.96,9,15.63l-7.97,0c-0.01-3.71-2.02-6.95-5-8.71L84.99,54.41z"/>
	<path class="st5" d="M90.02,58.74c2.49,3.1,3.97,7.02,3.97,11.3l-7.97,0C86.02,65.76,87.48,61.84,90.02,58.74z"/>
	<path class="st6" d="M95,54.4c2.68-1.58,5.78-2.47,9.12-2.47c10,0,18.1,8.1,18.1,18.1c0,10-8.11,18.1-18.1,18.1
		c-10,0-18.1-8.1-18.1-18.1h7.98c0,5.59,4.53,10.12,10.12,10.12c5.59,0,10.12-4.53,10.12-10.12c0-5.59-4.53-10.12-10.12-10.12
		c-1.88,0-3.64,0.51-5.14,1.4L95,54.4z"/>
	<path class="st7" d="M73.12,52.17c0.9-0.14,1.82-0.21,2.77-0.21c3.32,0,6.39,0.88,9.11,2.45c-3.06-1.74-5.12-5.03-5.12-8.8
		c0-5.59,4.53-10.12,10.12-10.12c5.59,0,10.12,4.53,10.12,10.12c0,3.77-2.06,7.06-5.12,8.8l3.99,6.91
		c5.44-3.12,9.11-8.99,9.11-15.71c0-10-8.1-18.1-18.1-18.1c-10,0-18.1,8.11-18.1,18.1C71.89,47.92,72.33,50.13,73.12,52.17z"/>
</g>
</svg>
