<?xml version="1.0" encoding="utf-8"?>
<!-- Generator: Adobe Illustrator 24.0.0, SVG Export Plug-In . SVG Version: 6.00 Build 0)  -->
<svg version="1.1" id="Layer_1" xmlns="http://www.w3.org/2000/svg" xmlns:xlink="http://www.w3.org/1999/xlink" x="0px" y="0px"
	 viewBox="0 0 180 150" style="enable-background:new 0 0 180 150;" xml:space="preserve">
<style type="text/css">
	.st0{fill:#010101;}
	.st1{fill:#68A2D9;}
</style>
<g>
	<polygon class="st0" points="44.74,69.8 46.49,69.8 46.49,67.95 46.49,50.66 44.74,50.66 	"/>
	<polygon class="st0" points="57.75,69.8 59.5,69.8 59.5,67.85 59.5,50.66 57.75,50.66 	"/>
	<polygon class="st0" points="48.03,61.11 56.21,61.11 56.21,59.36 54.89,59.36 48.03,59.36 	"/>
	<polygon class="st0" points="105.81,69.8 107.56,69.8 107.56,68.37 107.56,53.95 105.81,53.95 	"/>
	<polygon class="st0" points="99.5,52.41 112.3,52.41 113.86,52.41 113.86,50.66 99.5,50.66 	"/>
	<polygon class="st0" points="123.07,69.8 124.82,69.8 124.82,68.37 124.82,53.95 123.07,53.95 	"/>
	<polygon class="st0" points="116.77,52.41 129.56,52.41 131.13,52.41 131.13,50.66 116.77,50.66 	"/>
	<polygon class="st0" points="79.02,50.66 71.19,61.67 71.19,69.8 72.93,69.8 72.93,62.23 81.17,50.66 	"/>
	<polygon class="st0" points="65.42,50.66 63.27,50.66 70.19,60.39 71.26,58.88 	"/>
	<polygon class="st0" points="90.67,50.66 88.9,50.66 80.05,69.8 81.98,69.8 89.79,52.92 97.59,69.8 99.52,69.8 	"/>
	<polygon class="st0" points="86.85,62.93 86.04,64.68 93.53,64.68 92.72,62.93 90.38,62.93 	"/>
	<g>
		<path class="st1" d="M41.97,90.99l-0.12,0.12c-2.05,2.02-3.81,2.8-6.28,2.8c-4.17,0-7.43-3.1-7.78-7.38h-1.76
			c0.16,2.4,1.1,4.6,2.67,6.25h-0.02l6.97,6.56l6.82-6.41c0.21-0.19,0.76-0.72,0.76-0.72L41.97,90.99z"/>
		<polygon class="st0" points="149.47,76.53 148.61,76.53 148.61,76.09 150.81,76.09 150.81,76.53 149.95,76.53 149.95,78.8 
			149.47,78.8 		"/>
		<polygon class="st0" points="151.32,76.09 151.82,76.09 152.65,77.37 153.47,76.09 153.98,76.09 153.98,78.8 153.5,78.8 
			153.5,76.86 152.65,78.13 152.63,78.13 151.79,76.86 151.79,78.8 151.32,78.8 		"/>
		<polygon class="st0" points="123.07,95.34 124.82,95.34 124.82,93.53 124.82,76.19 123.07,76.19 		"/>
		<polygon class="st0" points="46.99,95.34 60.22,95.34 60.22,93.59 48.74,93.59 48.74,77.94 60.22,77.94 60.22,76.19 46.99,76.19 
					"/>
		<polygon class="st0" points="58.75,86.64 58.75,84.89 50.28,84.89 50.28,86.64 57.43,86.64 		"/>
		<path class="st0" d="M139.31,77.62c2.48,0,4.4,0.79,6.23,2.56l0.13,0.12l1.22-1.26l-0.13-0.12c-2-1.83-4.03-3.05-7.42-3.05
			c-5.07,0-9.16,3.92-9.54,9.13h1.75C131.88,80.71,135.13,77.62,139.31,77.62"/>
		<path class="st0" d="M145.74,90.99l-0.12,0.12c-2.05,2.02-3.81,2.8-6.29,2.8c-4.16,0-7.43-3.1-7.78-7.38h-1.76
			c0.35,5.29,4.33,9.12,9.49,9.12c3.71,0,5.92-1.68,7.59-3.33l0.13-0.13L145.74,90.99z"/>
		<path class="st0" d="M35.53,77.62c2.48,0,4.4,0.79,6.24,2.56l0.13,0.12l1.22-1.26l-0.13-0.12c-2-1.83-4.03-3.05-7.42-3.05
			c-5.08,0-9.17,3.92-9.54,9.12h1.75C28.11,80.71,31.36,77.62,35.53,77.62"/>
		<polygon class="st0" points="91.37,95.34 93.12,95.34 93.12,93.9 93.12,79.48 91.37,79.48 		"/>
		<polygon class="st0" points="85.06,77.94 97.86,77.94 99.43,77.94 99.43,76.19 85.06,76.19 		"/>
		<rect x="103.67" y="76.19" class="st0" width="1.75" height="19.15"/>
		<path class="st0" d="M118.55,93.55c0,0-0.44,0.51-1.35,0.51c-1.45,0.01-2.44-1.63-3.14-3.06c0,0-1.39-2.85-1.72-3.57
			c1.58-0.25,2.93-0.89,3.83-1.81c0.95-0.97,1.47-2.3,1.47-3.74c0-1.46-0.51-2.76-1.47-3.74c-1.23-1.26-3.15-1.95-5.41-1.95h-3.79
			v1.75h3.71c3.32,0,5.22,1.44,5.22,3.94c0,2.5-1.9,3.94-5.22,3.94h-3.71v1.75h3.5l2.02,4.21c0.49,1,1.98,4.04,4.7,4.04
			c1.8,0,2.63-1.05,2.63-1.05L118.55,93.55z"/>
		<polygon class="st0" points="64.84,95.34 66.59,95.34 66.59,81.3 64.84,78.99 		"/>
		<polygon class="st0" points="80.91,95.34 80.91,76.19 79.16,76.19 79.17,92.44 66.88,76.19 64.69,76.19 79.16,95.34 		"/>
	</g>
</g>
</svg>
