<?xml version="1.0" encoding="utf-8"?>
<!-- Generator: Adobe Illustrator 24.0.0, SVG Export Plug-In . SVG Version: 6.00 Build 0)  -->
<svg version="1.1" id="Layer_1" xmlns="http://www.w3.org/2000/svg" xmlns:xlink="http://www.w3.org/1999/xlink" x="0px" y="0px"
	 viewBox="0 0 180 150" style="enable-background:new 0 0 180 150;" xml:space="preserve">
<style type="text/css">
	.st0{fill:#FDD208;}
	.st1{fill:#231F20;}
	.st2{fill:#F58123;}
	.st3{fill:#7582BF;}
	.st4{fill:#B2AA7E;}
	.st5{fill:#D6E03E;}
	.st6{fill:#51B3CF;}
	.st7{fill:#74C168;}
</style>
<g>
	<path class="st0" d="M82.03,33.1c0,4.47-3.63,8.1-8.1,8.1c-4.47,0-8.1-3.63-8.1-8.1c0-4.47,3.62-8.1,8.1-8.1
		C78.4,25,82.03,28.63,82.03,33.1"/>
	<path class="st1" d="M98.46,33.1c0,4.47-3.62,8.1-8.1,8.1c-4.48,0-8.1-3.63-8.1-8.1c0-4.47,3.63-8.1,8.1-8.1
		C94.84,25,98.46,28.63,98.46,33.1"/>
	<path class="st2" d="M114.89,33.1c0,4.47-3.63,8.1-8.1,8.1c-4.47,0-8.1-3.63-8.1-8.1c0-4.47,3.62-8.1,8.1-8.1
		C111.27,25,114.89,28.63,114.89,33.1"/>
	<path class="st3" d="M82.03,49.53c0,4.47-3.63,8.1-8.1,8.1c-4.47,0-8.1-3.62-8.1-8.1c0-4.47,3.62-8.1,8.1-8.1
		C78.4,41.43,82.03,45.06,82.03,49.53"/>
	<path class="st4" d="M98.46,49.53c0,4.47-3.62,8.1-8.1,8.1c-4.48,0-8.1-3.62-8.1-8.1c0-4.47,3.63-8.1,8.1-8.1
		C94.84,41.43,98.46,45.06,98.46,49.53"/>
	<path class="st5" d="M114.89,49.53c0,4.47-3.63,8.1-8.1,8.1c-4.47,0-8.1-3.62-8.1-8.1c0-4.47,3.62-8.1,8.1-8.1
		C111.27,41.43,114.89,45.06,114.89,49.53"/>
	<path class="st6" d="M82.03,65.96c0,4.48-3.63,8.1-8.1,8.1c-4.47,0-8.1-3.62-8.1-8.1c0-4.47,3.62-8.1,8.1-8.1
		C78.4,57.86,82.03,61.49,82.03,65.96"/>
	<path class="st1" d="M98.46,65.96c0,4.48-3.62,8.1-8.1,8.1c-4.48,0-8.1-3.62-8.1-8.1c0-4.47,3.63-8.1,8.1-8.1
		C94.84,57.86,98.46,61.49,98.46,65.96"/>
	<path class="st7" d="M114.89,65.96c0,4.48-3.63,8.1-8.1,8.1c-4.47,0-8.1-3.62-8.1-8.1c0-4.47,3.62-8.1,8.1-8.1
		C111.27,57.86,114.89,61.49,114.89,65.96"/>
	<path class="st1" d="M62.06,112.54h-4.68v12.27h2.02v-4.08h2.45c2.93,0,4.9-1.66,4.9-4.14v-0.03
		C66.74,114.11,64.9,112.54,62.06,112.54 M61.9,118.82h-2.5v-4.37h2.56c0.82,0,2.74,0.21,2.74,2.15v0.03
		C64.7,117.96,63.6,118.82,61.9,118.82"/>
	<polygon class="st1" points="73.55,122.88 73.55,112.54 71.54,112.54 71.54,124.8 80.06,124.8 80.06,122.88 	"/>
	<path class="st1" d="M91.63,112.45h-1.68l-5.59,12.35h2.12c0,0,1.2-2.69,1.37-3.05h5.82c0.16,0.37,1.35,3.05,1.35,3.05h2.19
		L91.63,112.45z M92.84,119.86h-4.16c0.33-0.73,1.63-3.64,2.09-4.66C91.22,116.22,92.52,119.14,92.84,119.86"/>
	<path class="st1" d="M110.33,121.27l-0.25,0.24c-0.99,0.94-1.96,1.57-3.48,1.57c-2.31,0-4.11-1.94-4.11-4.41v-0.03
		c0-2.5,1.77-4.38,4.11-4.38c1.28,0,2.29,0.45,3.39,1.49l0.26,0.25l1.38-1.48l-0.26-0.24c-1.06-1-2.37-1.93-4.75-1.93
		c-3.48,0-6.2,2.78-6.2,6.33v0.03c0,3.59,2.64,6.3,6.15,6.3c2.44,0,3.83-1.08,4.88-2.14l0.25-0.26L110.33,121.27z"/>
	<polygon class="st1" points="118.5,122.9 118.5,119.57 124.8,119.57 124.8,117.67 118.5,117.67 118.5,114.44 125.55,114.44 
		125.55,112.54 116.48,112.54 116.48,124.8 125.63,124.8 125.63,122.9 	"/>
	<polygon class="st1" points="55.08,89.51 55.08,97.17 44.73,97.17 44.73,89.51 43.25,89.51 43.25,106.32 44.73,106.32 44.73,98.56 
		55.08,98.56 55.08,106.32 56.56,106.32 56.56,89.51 	"/>
	<path class="st1" d="M77.86,89.51c0,0-5.96,8.52-6.16,8.8c-0.2-0.29-6.13-8.8-6.13-8.8h-1.84c0,0,7.17,10.11,7.21,10.17v6.64h1.48
		v-6.66c0.05-0.06,7.22-10.15,7.22-10.15H77.86z"/>
	<path class="st1" d="M91.7,89.39h-1.34l-7.83,16.93h1.55c0,0,2.04-4.49,2.11-4.64h9.61c0.06,0.14,2.11,4.64,2.11,4.64h1.62
		L91.7,89.39z M86.82,100.32c0.15-0.33,3.97-8.69,4.18-9.15c0.21,0.47,4.01,8.82,4.16,9.15H86.82z"/>
	<polygon class="st1" points="103.89,89.51 103.89,90.89 109.67,90.89 109.67,106.32 111.15,106.32 111.15,90.89 116.92,90.89 
		116.92,89.51 	"/>
	<polygon class="st1" points="123.72,89.51 123.72,90.89 129.49,90.89 129.49,106.32 130.97,106.32 130.97,90.89 136.75,90.89 
		136.75,89.51 	"/>
	<polygon class="st1" points="129.78,112.97 130.53,112.97 130.53,115 130.97,115 130.97,112.97 131.7,112.97 131.7,112.54 
		129.78,112.54 	"/>
	<polygon class="st1" points="134.14,112.54 133.3,113.82 132.46,112.54 132.04,112.54 132.04,115 132.49,115 132.49,113.4 
		133.22,114.49 133.37,114.49 134.1,113.41 134.1,115 134.55,115 134.55,112.54 	"/>
</g>
</svg>
