<?xml version="1.0" encoding="utf-8"?>
<!-- Generator: Adobe Illustrator 24.0.0, SVG Export Plug-In . SVG Version: 6.00 Build 0)  -->
<svg version="1.1" id="Layer_1" xmlns="http://www.w3.org/2000/svg" xmlns:xlink="http://www.w3.org/1999/xlink" x="0px" y="0px"
	 viewBox="0 0 180 150" style="enable-background:new 0 0 180 150;" xml:space="preserve">
<style type="text/css">
	.st0{fill:#1C355E;}
	.st1{fill-rule:evenodd;clip-rule:evenodd;fill:#1C355E;}
	.st2{fill-rule:evenodd;clip-rule:evenodd;fill:#316094;}
	.st3{fill:#5E7DA9;}
</style>
<g>
	<polygon class="st0" points="7.66,101.89 7.66,84.86 10.39,84.86 10.39,99.41 16.48,99.41 16.48,101.89 	"/>
	<path class="st0" d="M31.3,101.89l-1.91-4.38h-6.64l-1.95,4.39l-2.87,0l8.12-17.71l8.11,17.71L31.3,101.89z M23.76,95.2h4.67
		l-1.72-3.89l-0.31-0.85l-0.32-1.08c-0.05,0.22-0.1,0.4-0.14,0.56c-0.04,0.15-0.09,0.32-0.15,0.49c-0.09,0.3-0.19,0.6-0.31,0.89
		L23.76,95.2z"/>
	<polygon class="st0" points="41.79,87.21 41.79,101.89 39.06,101.89 39.06,87.21 34.6,87.21 34.6,84.86 46.22,84.86 46.22,87.21 	
		"/>
	<path class="st0" d="M59.41,101.89l-1.91-4.38h-6.64l-1.95,4.39l-2.87,0l8.12-17.71l8.11,17.71L59.41,101.89z M51.87,95.2h4.67
		l-1.71-3.89l-0.31-0.85l-0.32-1.08c-0.05,0.22-0.1,0.4-0.14,0.56c-0.04,0.15-0.09,0.32-0.15,0.49c-0.09,0.3-0.19,0.6-0.31,0.89
		L51.87,95.2z"/>
	<path class="st0" d="M80.25,93.48l-0.15-1.1l-0.16-1.23c-0.08,0.42-0.18,0.82-0.3,1.21c-0.12,0.39-0.28,0.77-0.47,1.14l-4.39,9.08
		l-4.39-9.27c-0.19-0.4-0.35-0.76-0.48-1.1l-0.34-1.06c0,0.28,0,0.48-0.02,0.6c-0.01,0.12-0.04,0.29-0.07,0.53
		c-0.05,0.42-0.12,0.83-0.22,1.22l-1.8,8.38l-2.5,0l3.96-17.75l4.95,10.75l0.33,0.86l0.58,1.46c0.16-0.47,0.41-1.09,0.76-1.86
		l0.2-0.47l4.84-10.74l4.05,17.75h-2.53L80.25,93.48z"/>
	<polygon class="st0" points="96.34,101.89 96.34,84.86 99.07,84.86 99.07,91.14 107.31,91.14 107.31,84.86 110.04,84.86 
		110.04,101.89 107.31,101.89 107.31,93.62 99.07,93.62 99.07,101.89 	"/>
	<path class="st0" d="M132.3,93.42c0,1.23-0.22,2.38-0.67,3.44c-0.44,1.07-1.09,2.02-1.95,2.86c-0.85,0.84-1.83,1.49-2.93,1.95
		c-1.1,0.46-2.23,0.7-3.42,0.7c-1.2,0-2.36-0.23-3.45-0.68c-1.1-0.46-2.06-1.1-2.9-1.93c-0.84-0.83-1.48-1.79-1.93-2.88
		c-0.45-1.09-0.68-2.23-0.68-3.44c0-1.21,0.22-2.36,0.66-3.45c0.44-1.09,1.09-2.05,1.94-2.89c0.85-0.84,1.82-1.49,2.9-1.93
		c1.08-0.45,2.24-0.67,3.46-0.67c1.19,0,2.33,0.22,3.41,0.66c1.08,0.44,2.05,1.09,2.9,1.94c0.86,0.85,1.51,1.82,1.97,2.9
		C132.08,91.07,132.3,92.21,132.3,93.42 M129.46,93.42c0-0.88-0.15-1.7-0.46-2.47c-0.3-0.77-0.74-1.45-1.32-2.05
		c-0.57-0.6-1.23-1.06-1.97-1.39c-0.75-0.33-1.53-0.49-2.37-0.49c-0.83,0-1.61,0.16-2.35,0.47c-0.74,0.32-1.4,0.78-1.99,1.39
		c-0.56,0.58-1,1.27-1.33,2.06c-0.15,0.4-0.27,0.79-0.35,1.19c-0.07,0.4-0.11,0.82-0.11,1.28c0,0.87,0.15,1.68,0.46,2.45
		c0.15,0.4,0.34,0.76,0.55,1.09c0.21,0.33,0.47,0.65,0.78,0.97c0.57,0.6,1.22,1.06,1.97,1.38c0.75,0.32,1.54,0.48,2.37,0.48
		c0.83,0,1.61-0.16,2.34-0.48c0.74-0.32,1.39-0.78,1.96-1.37c0.57-0.6,1.01-1.29,1.33-2.07C129.3,95.09,129.46,94.27,129.46,93.42"
		/>
	<polygon class="st0" points="141.17,87.21 141.17,101.89 138.45,101.89 138.45,87.21 133.99,87.21 133.99,84.86 145.61,84.86 
		145.61,87.21 	"/>
	<polygon class="st0" points="148.91,101.89 148.91,84.86 158.27,84.86 158.27,87.21 151.64,87.21 151.64,91.48 158.27,91.48 
		158.27,93.91 151.64,93.91 151.64,99.41 158.27,99.41 158.27,101.89 	"/>
	<polygon class="st0" points="163.51,101.89 163.51,84.86 166.24,84.86 166.24,99.41 172.34,99.41 172.34,101.89 	"/>
	<rect x="67.96" y="47.41" class="st1" width="9.9" height="10.24"/>
	<polygon class="st0" points="66.67,58.96 66.67,57.66 66.67,47.42 56.26,47.42 56.26,69.01 77.86,69.01 77.86,58.96 67.96,58.96 	
		"/>
	<rect x="79.2" y="58.86" class="st2" width="21.6" height="10.15"/>
	<rect x="79.2" y="47.41" class="st2" width="21.6" height="10.15"/>
	<polygon class="st3" points="102.14,69.01 123.74,69.01 123.74,58.86 110.39,58.86 110.39,57.56 123.74,57.56 123.74,47.41 
		102.14,47.41 	"/>
</g>
</svg>
