<?xml version="1.0" encoding="utf-8"?>
<!-- Generator: Adobe Illustrator 24.0.0, SVG Export Plug-In . SVG Version: 6.00 Build 0)  -->
<svg version="1.1" id="Layer_1" xmlns="http://www.w3.org/2000/svg" xmlns:xlink="http://www.w3.org/1999/xlink" x="0px" y="0px"
	 viewBox="0 0 1024 768" style="enable-background:new 0 0 1024 768;" xml:space="preserve">
<style type="text/css">
	.st0{fill-rule:evenodd;clip-rule:evenodd;fill:#6F8CB5;}
	.st1{fill:#00477E;}
	.st2{fill:#6F8CB5;}
	.st3{fill-rule:evenodd;clip-rule:evenodd;fill:#00477E;}
	.st4{fill-rule:evenodd;clip-rule:evenodd;fill:#306295;}
</style>
<g>
	<rect y="503.75" class="st0" width="1024" height="8.85"/>
	<polygon class="st1" points="45.5,477.83 45.5,380.1 61.14,380.1 61.14,463.61 96.12,463.61 96.12,477.83 	"/>
	<path class="st1" d="M181.12,477.81l-10.94-25.15h-38.1l-11.19,25.18l-16.46-0.01l46.61-101.62l46.54,101.62L181.12,477.81z
		 M137.86,439.45h26.78l-9.85-22.3l-1.77-4.88l-1.83-6.21c-0.3,1.25-0.57,2.31-0.81,3.21c-0.24,0.89-0.54,1.83-0.89,2.81
		c-0.48,1.74-1.07,3.43-1.77,5.08L137.86,439.45z"/>
	<polygon class="st1" points="241.33,393.58 241.33,477.82 225.69,477.82 225.69,393.58 200.11,393.58 200.11,380.1 266.77,380.1 
		266.77,393.58 	"/>
	<path class="st1" d="M342.48,477.81l-10.94-25.15h-38.1l-11.19,25.18l-16.45-0.01l46.61-101.62l46.54,101.62L342.48,477.81z
		 M299.21,439.45H326l-9.85-22.3l-1.77-4.88l-1.83-6.21c-0.3,1.25-0.57,2.31-0.81,3.21s-0.53,1.83-0.88,2.81
		c-0.48,1.74-1.07,3.43-1.77,5.08L299.21,439.45z"/>
	<path class="st1" d="M462.07,429.57l-0.85-6.28l-0.92-7.07c-0.44,2.4-1.01,4.72-1.71,6.94c-0.7,2.22-1.59,4.41-2.68,6.54
		l-25.2,52.12l-25.17-53.18c-1.1-2.27-2.02-4.39-2.76-6.34l-1.97-6.07c0,1.6-0.03,2.74-0.1,3.44c-0.06,0.69-0.21,1.7-0.43,3.03
		c-0.27,2.4-0.69,4.74-1.26,7l-10.34,48.13l-14.36,0.01l22.74-101.88l28.42,61.69l1.91,4.91l3.34,8.38
		c0.87-2.71,2.32-6.27,4.34-10.68l1.18-2.67l27.74-61.63l23.27,101.88h-14.51L462.07,429.57z"/>
	<polygon class="st1" points="554.39,477.83 554.39,380.1 570.03,380.1 570.03,416.15 617.36,416.15 617.36,380.1 633.01,380.1 
		633.01,477.83 617.36,477.83 617.36,430.36 570.03,430.36 570.03,477.83 	"/>
	<path class="st1" d="M760.78,429.19c0,7.04-1.27,13.62-3.82,19.74c-2.54,6.13-6.26,11.59-11.17,16.4
		c-4.91,4.81-10.52,8.54-16.79,11.18c-6.29,2.65-12.83,3.98-19.63,3.98c-6.92,0-13.54-1.31-19.82-3.91
		c-6.29-2.61-11.84-6.3-16.67-11.09c-4.82-4.79-8.52-10.3-11.11-16.53c-2.58-6.23-3.88-12.83-3.88-19.77
		c0-6.95,1.27-13.53,3.81-19.77c2.54-6.23,6.25-11.77,11.15-16.6c4.88-4.83,10.44-8.53,16.67-11.09c6.22-2.56,12.84-3.84,19.85-3.84
		c6.83,0,13.36,1.27,19.56,3.81c6.2,2.54,11.76,6.25,16.67,11.12c4.91,4.87,8.66,10.43,11.27,16.67
		C759.47,415.73,760.78,422.29,760.78,429.19 M744.47,429.19c0-5.03-0.88-9.75-2.64-14.16c-1.74-4.41-4.27-8.33-7.56-11.76
		c-3.28-3.43-7.06-6.08-11.33-7.95c-4.27-1.87-8.8-2.81-13.58-2.81c-4.78,0-9.28,0.9-13.51,2.7c-4.23,1.8-8.03,4.47-11.4,7.99
		c-3.2,3.34-5.74,7.29-7.63,11.83c-0.88,2.27-1.53,4.54-1.98,6.82c-0.44,2.27-0.66,4.72-0.66,7.34c0,4.99,0.88,9.67,2.64,14.03
		c0.88,2.27,1.92,4.36,3.15,6.28c1.22,1.92,2.71,3.76,4.47,5.55c3.24,3.43,7.01,6.07,11.3,7.91c4.3,1.85,8.83,2.78,13.61,2.78
		c4.73,0,9.21-0.91,13.44-2.74c4.23-1.83,7.98-4.46,11.24-7.89c3.27-3.43,5.82-7.38,7.66-11.86
		C743.55,438.78,744.47,434.1,744.47,429.19"/>
	<polygon class="st1" points="811.67,393.58 811.67,477.82 796.03,477.82 796.03,393.58 770.45,393.58 770.45,380.1 837.11,380.1 
		837.11,393.58 	"/>
	<polygon class="st1" points="856.08,477.83 856.08,380.1 909.79,380.1 909.79,393.59 871.72,393.59 871.72,418.08 909.79,418.08 
		909.79,432.04 871.72,432.04 871.72,463.61 909.79,463.61 909.79,477.83 	"/>
	<polygon class="st1" points="939.89,477.83 939.89,380.1 955.53,380.1 955.53,463.61 990.51,463.61 990.51,477.83 	"/>
	<path class="st2" d="M120.53,587.78c0,1.46,0.24,2.78,0.72,3.95c0.48,1.17,1.13,2.18,1.95,3c0.81,0.83,1.76,1.48,2.84,1.94
		c1.08,0.46,2.2,0.72,3.35,0.77c0.34,0,0.68-0.03,1.02-0.08c0.33-0.04,0.75-0.15,1.26-0.33c0.51-0.17,1.14-0.4,1.91-0.69
		c0.77-0.29,1.75-0.68,2.95-1.17l2.31-1.03l1.95,5.05l-6.27,2.27c-0.82,0.3-1.71,0.54-2.67,0.73c-0.96,0.19-1.77,0.3-2.46,0.3
		c-1.82,0-3.56-0.33-5.22-0.99c-1.65-0.66-3.11-1.61-4.36-2.85c-1.25-1.24-2.23-2.75-2.95-4.54c-0.72-1.78-1.08-3.77-1.08-5.96
		v-23.19c0-1.99,0.36-3.91,1.08-5.74c0.72-1.83,1.51-3.23,2.37-4.21c0.77-0.93,1.46-1.63,2.06-2.13c0.6-0.48,1.21-0.92,1.83-1.31
		l0.36-0.14l-0.21,0.06c0.53-0.29,1.28-0.64,2.27-1.06c0.99-0.42,2.32-0.62,4-0.62c0.72,0,1.56,0.12,2.52,0.36
		c0.96,0.24,1.8,0.48,2.52,0.73l6.05,2.34l-1.65,4.76l-6.63-2.56c-0.48-0.19-0.96-0.36-1.44-0.51c-0.48-0.14-0.91-0.21-1.3-0.21
		c-1.2,0-2.34,0.29-3.42,0.87c-1.08,0.59-2.03,1.35-2.84,2.31c-0.82,0.95-1.47,2.04-1.95,3.26c-0.48,1.21-0.72,2.49-0.72,3.8
		L120.53,587.78z"/>
	<path class="st2" d="M218.22,588.95c0,1.08-0.2,2.37-0.61,3.92c-0.41,1.53-1.15,3.01-2.23,4.42s-2.53,2.62-4.36,3.62
		c-1.83,1-4.13,1.5-6.91,1.5c-2.74,0-5-0.5-6.77-1.5c-1.78-1-3.21-2.21-4.29-3.62c-1.08-1.41-1.84-2.89-2.27-4.42
		c-0.44-1.54-0.66-2.84-0.66-3.92v-25.16c0-1.07,0.21-2.4,0.61-3.99c0.41-1.58,1.14-3.11,2.2-4.57c1.05-1.47,2.49-2.72,4.32-3.77
		c1.83-1.05,4.13-1.57,6.92-1.57c2.73,0,5.01,0.51,6.81,1.54c1.8,1.02,3.23,2.26,4.32,3.73c1.08,1.47,1.84,2.99,2.28,4.57
		c0.42,1.59,0.64,2.91,0.64,3.98V588.95z M213.39,563.71c0-1.8-0.34-3.25-1.01-4.35c-0.67-1.1-1.5-1.95-2.49-2.56
		c-0.98-0.6-2-1.01-3.06-1.2c-1.06-0.19-1.95-0.29-2.67-0.29c-0.72,0-1.61,0.11-2.66,0.33c-1.05,0.22-2.07,0.63-3.03,1.24
		c-0.96,0.61-1.79,1.47-2.49,2.56c-0.69,1.1-1.04,2.55-1.04,4.36v25.16c0,1.85,0.35,3.3,1.04,4.36c0.7,1.05,1.53,1.86,2.49,2.41
		c0.96,0.56,1.98,0.92,3.03,1.06c1.05,0.14,1.94,0.22,2.66,0.22c0.72,0,1.61-0.09,2.67-0.26c1.06-0.18,2.08-0.54,3.06-1.1
		c0.99-0.56,1.81-1.36,2.49-2.41c0.67-1.04,1.01-2.47,1.01-4.28V563.71z"/>
	<path class="st2" d="M300.34,601.75h-4.9l-8.79-20.7c-0.38,0.05-0.79,0.08-1.23,0.11c-0.43,0.03-0.84,0.04-1.22,0.04h-7.93v20.55
		h-4.75v-48.94c1.35-0.53,2.74-1.02,4.18-1.46c1.25-0.39,2.61-0.74,4.11-1.06c1.49-0.32,2.98-0.47,4.47-0.47
		c2.02,0,3.94,0.33,5.77,0.99c1.82,0.66,3.43,1.63,4.82,2.92c1.4,1.29,2.51,2.85,3.35,4.68c0.84,1.83,1.26,3.92,1.26,6.25
		c0,1.61-0.19,3.18-0.58,4.72c-0.38,1.53-0.92,2.97-1.62,4.32c-0.7,1.34-1.54,2.52-2.52,3.55c-0.99,1.02-2.06,1.83-3.21,2.41
		L300.34,601.75z M283.71,555.01c-0.77,0-1.59,0.09-2.45,0.25c-0.86,0.18-1.66,0.36-2.38,0.55c-0.86,0.24-1.7,0.51-2.52,0.81V576
		h7.35c3.27,0,5.88-0.97,7.85-2.93c1.97-1.95,2.95-4.75,2.95-8.41c0-1.75-0.26-3.25-0.79-4.5c-0.53-1.24-1.27-2.24-2.23-3
		c-0.96-0.75-2.1-1.3-3.42-1.64C286.74,555.18,285.29,555.01,283.71,555.01"/>
	<path class="st2" d="M363.96,549.81c2.01,0,3.94,0.36,5.77,1.09c1.82,0.73,3.43,1.77,4.82,3.11c1.4,1.34,2.51,2.94,3.35,4.83
		c0.84,1.87,1.26,3.98,1.26,6.33c0,2.34-0.39,4.5-1.16,6.47c-0.77,1.97-1.83,3.69-3.21,5.12c-1.36,1.44-2.99,2.55-4.86,3.33
		c-1.87,0.78-3.89,1.17-6.05,1.17h-7.92v20.49h-4.76v-48.94c1.3-0.53,2.67-1.02,4.11-1.46c1.25-0.39,2.61-0.74,4.1-1.06
		C360.91,549.97,362.42,549.81,363.96,549.81 M363.38,555.01c-0.77,0-1.59,0.09-2.45,0.25c-0.87,0.18-1.66,0.38-2.38,0.63
		c-0.87,0.24-1.71,0.51-2.52,0.8v19.39h7.35c3.26,0,5.88-0.91,7.85-2.74c1.97-1.83,2.95-4.55,2.95-8.16c0-3.56-1-6.15-3.02-7.75
		C369.15,555.81,366.55,555.01,363.38,555.01"/>
	<path class="st2" d="M457.32,588.95c0,1.08-0.21,2.37-0.61,3.92c-0.41,1.53-1.15,3.01-2.23,4.42c-1.08,1.41-2.54,2.62-4.36,3.62
		c-1.83,1-4.13,1.5-6.91,1.5c-2.74,0-4.99-0.5-6.77-1.5c-1.78-1-3.2-2.21-4.29-3.62s-1.84-2.89-2.27-4.42
		c-0.43-1.54-0.65-2.84-0.65-3.92v-25.16c0-1.07,0.2-2.4,0.61-3.99c0.41-1.58,1.14-3.11,2.2-4.57c1.06-1.47,2.5-2.72,4.32-3.77
		c1.83-1.05,4.13-1.57,6.92-1.57c2.73,0,5.01,0.51,6.81,1.54c1.8,1.02,3.24,2.26,4.32,3.73c1.08,1.47,1.84,2.99,2.28,4.57
		c0.43,1.59,0.65,2.91,0.65,3.98V588.95z M452.49,563.71c0-1.8-0.33-3.25-1-4.35c-0.68-1.1-1.5-1.95-2.49-2.56
		c-0.99-0.6-2.01-1.01-3.06-1.2c-1.05-0.19-1.94-0.29-2.66-0.29c-0.72,0-1.61,0.11-2.67,0.33c-1.06,0.22-2.07,0.63-3.03,1.24
		c-0.96,0.61-1.79,1.47-2.49,2.56c-0.69,1.1-1.04,2.55-1.04,4.36v25.16c0,1.85,0.35,3.3,1.04,4.36c0.69,1.05,1.53,1.86,2.49,2.41
		c0.96,0.56,1.97,0.92,3.03,1.06c1.06,0.14,1.95,0.22,2.67,0.22c0.72,0,1.61-0.09,2.66-0.26c1.06-0.18,2.08-0.54,3.06-1.1
		c0.99-0.56,1.81-1.36,2.49-2.41c0.67-1.04,1-2.47,1-4.28V563.71z"/>
	<path class="st2" d="M539.45,601.75h-4.9l-8.79-20.7c-0.39,0.05-0.79,0.08-1.23,0.11c-0.43,0.03-0.84,0.04-1.23,0.04h-7.92v20.55
		h-4.76v-48.94c1.35-0.53,2.74-1.02,4.18-1.46c1.25-0.39,2.61-0.74,4.11-1.06c1.49-0.32,2.97-0.47,4.46-0.47
		c2.02,0,3.94,0.33,5.77,0.99c1.82,0.66,3.43,1.63,4.82,2.92c1.4,1.29,2.51,2.85,3.35,4.68c0.84,1.83,1.26,3.92,1.26,6.25
		c0,1.61-0.19,3.18-0.58,4.72c-0.39,1.53-0.92,2.97-1.62,4.32c-0.7,1.34-1.54,2.52-2.52,3.55c-0.98,1.02-2.05,1.83-3.21,2.41
		L539.45,601.75z M522.81,555.01c-0.77,0-1.59,0.09-2.45,0.25c-0.86,0.18-1.66,0.36-2.38,0.55c-0.86,0.24-1.71,0.51-2.52,0.81V576
		h7.35c3.26,0,5.88-0.97,7.85-2.93c1.97-1.95,2.95-4.75,2.95-8.41c0-1.75-0.27-3.25-0.79-4.5c-0.53-1.24-1.27-2.24-2.23-3
		c-0.96-0.75-2.1-1.3-3.42-1.64C525.84,555.18,524.39,555.01,522.81,555.01"/>
	<path class="st2" d="M591.53,601.67h-4.9l11.53-51.2H605l11.53,51.2h-4.83l-3.17-13.97h-13.91L591.53,601.67z M601.69,556.18h-0.07
		c-0.96,4.44-1.91,8.81-2.85,13.13c-0.93,4.31-1.88,8.7-2.85,13.13h11.31L601.69,556.18z"/>
	<polygon class="st2" points="687.85,555.44 676.53,555.44 676.53,601.75 671.71,601.75 671.71,555.44 660.04,555.44 660.04,550.54 
		687.85,550.54 	"/>
	<rect x="737.84" y="550.54" class="st2" width="4.68" height="51.21"/>
	<path class="st2" d="M824.01,588.95c0,1.08-0.21,2.37-0.61,3.92c-0.41,1.53-1.15,3.01-2.23,4.42c-1.08,1.41-2.53,2.62-4.36,3.62
		c-1.83,1-4.14,1.5-6.92,1.5c-2.73,0-5-0.5-6.77-1.5c-1.77-1-3.2-2.21-4.29-3.62c-1.08-1.41-1.83-2.89-2.26-4.42
		c-0.44-1.54-0.66-2.84-0.66-3.92v-25.16c0-1.07,0.2-2.4,0.61-3.99c0.41-1.58,1.14-3.11,2.19-4.57c1.05-1.47,2.5-2.72,4.33-3.77
		c1.83-1.05,4.13-1.57,6.92-1.57c2.73,0,5.01,0.51,6.81,1.54c1.8,1.02,3.24,2.26,4.32,3.73c1.08,1.47,1.84,2.99,2.27,4.57
		c0.43,1.59,0.65,2.91,0.65,3.98V588.95z M819.18,563.71c0-1.8-0.33-3.25-1-4.35c-0.68-1.1-1.51-1.95-2.49-2.56
		c-0.99-0.6-2.01-1.01-3.06-1.2c-1.05-0.19-1.94-0.29-2.66-0.29s-1.62,0.11-2.67,0.33c-1.06,0.22-2.06,0.63-3.03,1.24
		c-0.96,0.61-1.79,1.47-2.49,2.56c-0.69,1.1-1.05,2.55-1.05,4.36v25.16c0,1.85,0.35,3.3,1.05,4.36c0.69,1.05,1.53,1.86,2.49,2.41
		c0.96,0.56,1.97,0.92,3.03,1.06c1.05,0.14,1.95,0.22,2.67,0.22s1.61-0.09,2.66-0.26c1.05-0.18,2.07-0.54,3.06-1.1
		c0.98-0.56,1.81-1.36,2.49-2.41c0.67-1.04,1-2.47,1-4.28V563.71z"/>
	<polygon class="st2" points="906.48,550.54 906.48,601.75 898.86,601.75 882.07,559.98 882,559.98 882,601.75 877.39,601.75 
		877.39,550.54 883.29,550.54 901.66,595.82 901.81,595.82 901.81,550.54 	"/>
	<rect x="397.8" y="165.52" class="st3" width="56.17" height="58.15"/>
	<polygon class="st1" points="390.44,231.04 390.44,223.67 390.44,165.52 331.36,165.52 331.36,288.13 453.97,288.13 453.97,231.04 
		397.81,231.04 	"/>
	<rect x="461.6" y="230.51" class="st4" width="122.62" height="57.62"/>
	<rect x="461.6" y="165.52" class="st4" width="122.62" height="57.62"/>
	<polygon class="st2" points="591.85,288.13 714.46,288.13 714.46,230.51 638.67,230.51 638.67,223.14 714.46,223.14 714.46,165.52 
		591.85,165.52 	"/>
</g>
</svg>
