<?xml version="1.0" encoding="utf-8"?>
<!-- Generator: Adobe Illustrator 24.0.0, SVG Export Plug-In . SVG Version: 6.00 Build 0)  -->
<svg version="1.1" id="Layer_1" xmlns="http://www.w3.org/2000/svg" xmlns:xlink="http://www.w3.org/1999/xlink" x="0px" y="0px"
	 viewBox="0 0 180 150" style="enable-background:new 0 0 180 150;" xml:space="preserve">
<style type="text/css">
	.st0{fill-rule:evenodd;clip-rule:evenodd;fill:#0082CA;}
	.st1{fill-rule:evenodd;clip-rule:evenodd;fill:#93D500;}
	.st2{fill-rule:evenodd;clip-rule:evenodd;fill:#000F9F;}
	.st3{fill-rule:evenodd;clip-rule:evenodd;fill:#E50695;}
	.st4{fill:#0082CA;}
	.st5{fill:#93D500;}
	.st6{fill:#E50695;}
	.st7{fill:#000F9F;}
	.st8{fill:#6D6E71;}
</style>
<g>
	<g>
		<g>
			<rect x="33.19" y="77.91" class="st0" width="26.29" height="5.6"/>
			<rect x="90" y="77.91" class="st1" width="27.2" height="5.6"/>
			<rect x="118" y="77.91" class="st2" width="28.81" height="5.6"/>
			<rect x="60.37" y="77.91" class="st3" width="28.81" height="5.6"/>
			<g>
				<path class="st4" d="M47.02,78.64c-1.46,0-2.86-0.21-4.16-0.63c-1.3-0.41-2.46-0.99-3.46-1.71c-1.05-0.76-1.89-1.67-2.5-2.71
					c-0.65-1.11-0.98-2.32-0.98-3.6v-1.92h5.17v1.92c0,0.38,0.1,0.72,0.32,1.07c0.27,0.44,0.65,0.82,1.15,1.16
					c0.54,0.37,1.2,0.67,1.95,0.89c0.77,0.23,1.61,0.34,2.52,0.34c0.92,0,1.78-0.11,2.56-0.32c0.75-0.2,1.4-0.48,1.94-0.84
					c0.48-0.31,0.84-0.68,1.11-1.11c0.22-0.36,0.33-0.76,0.33-1.2c0-0.41-0.09-0.72-0.27-0.99c-0.26-0.37-0.63-0.7-1.11-1
					c-0.57-0.35-1.25-0.64-2.03-0.87c-0.87-0.25-1.82-0.47-2.83-0.63c-1.25-0.19-2.46-0.46-3.58-0.82
					c-1.19-0.37-2.26-0.87-3.18-1.48c-1.01-0.66-1.82-1.48-2.41-2.43c-0.64-1.02-0.96-2.2-0.96-3.52c0-1.29,0.31-2.49,0.92-3.56
					c0.58-1.01,1.37-1.89,2.36-2.61c0.95-0.69,2.05-1.21,3.3-1.58c1.21-0.35,2.5-0.53,3.86-0.53c1.38,0,2.69,0.2,3.92,0.59
					c1.23,0.4,2.33,0.95,3.26,1.64c0.98,0.72,1.77,1.6,2.35,2.61c0.61,1.07,0.92,2.22,0.92,3.43v1.92h-5.17v-1.92
					c0-0.33-0.09-0.64-0.28-0.95c-0.24-0.39-0.57-0.72-1-1.02c-0.48-0.33-1.07-0.61-1.75-0.82c-0.68-0.21-1.44-0.31-2.24-0.31
					c-0.83,0-1.61,0.1-2.31,0.28c-0.66,0.18-1.24,0.43-1.7,0.74c-0.42,0.28-0.73,0.6-0.97,0.99c-0.2,0.33-0.29,0.67-0.29,1.08
					c0,0.35,0.08,0.62,0.25,0.87c0.24,0.35,0.56,0.64,0.99,0.9c0.52,0.32,1.14,0.59,1.85,0.81c0.77,0.24,1.59,0.42,2.44,0.53
					c1.39,0.22,2.68,0.52,3.88,0.89c1.28,0.4,2.42,0.91,3.39,1.54c1.07,0.68,1.93,1.53,2.56,2.53c0.67,1.07,1.02,2.3,1.02,3.67
					c0,1.34-0.33,2.59-0.97,3.71c-0.62,1.08-1.48,2.01-2.54,2.75c-1,0.7-2.18,1.24-3.48,1.62C49.84,78.46,48.46,78.64,47.02,78.64z"
					/>
			</g>
			<g>
				<polygon class="st5" points="115.26,77.91 110.09,77.91 110.09,66.54 97.35,66.54 97.35,77.91 92.18,77.91 92.18,50 97.35,50 
					97.35,61.37 110.09,61.37 110.09,50 115.26,50 				"/>
			</g>
			<g>
				<path class="st6" d="M74.66,78.64c-1.97,0-3.85-0.38-5.59-1.12c-1.72-0.74-3.25-1.77-4.54-3.06c-1.29-1.29-2.32-2.82-3.06-4.54
					c-0.75-1.74-1.13-3.62-1.13-5.59c0-1.97,0.38-3.85,1.13-5.59c0.74-1.72,1.77-3.25,3.06-4.54c1.29-1.29,2.82-2.32,4.54-3.06
					c1.74-0.75,3.62-1.13,5.59-1.13c1.97,0,3.85,0.38,5.59,1.13c1.72,0.74,3.25,1.77,4.54,3.06c1.29,1.29,2.32,2.82,3.06,4.54
					c0.75,1.74,1.13,3.62,1.13,5.59c0,1.97-0.38,3.85-1.13,5.59c-0.74,1.72-1.77,3.25-3.06,4.54c-1.29,1.29-2.82,2.32-4.54,3.06
					C78.51,78.27,76.63,78.64,74.66,78.64z M74.66,55.18c-1.27,0-2.46,0.24-3.55,0.71c-1.11,0.48-2.09,1.14-2.92,1.97
					c-0.83,0.83-1.49,1.81-1.97,2.92c-0.47,1.09-0.71,2.28-0.71,3.55c0,1.27,0.24,2.46,0.71,3.55c0.48,1.11,1.14,2.09,1.97,2.92
					c0.83,0.83,1.81,1.49,2.92,1.97c1.09,0.47,2.28,0.71,3.55,0.71c1.27,0,2.46-0.24,3.55-0.71c1.11-0.48,2.09-1.14,2.92-1.97
					c0.83-0.83,1.49-1.81,1.97-2.92c0.47-1.09,0.71-2.28,0.71-3.55c0-1.27-0.24-2.46-0.71-3.55c-0.48-1.11-1.14-2.09-1.97-2.92
					c-0.83-0.83-1.81-1.49-2.92-1.97C77.12,55.42,75.93,55.18,74.66,55.18z"/>
			</g>
			<g>
				<path class="st7" d="M132.33,78.64c-1.97,0-3.85-0.38-5.59-1.12c-1.72-0.74-3.25-1.77-4.54-3.06c-1.29-1.29-2.32-2.82-3.06-4.54
					c-0.75-1.74-1.13-3.62-1.13-5.59c0-1.97,0.38-3.85,1.13-5.59c0.74-1.72,1.77-3.25,3.06-4.54c1.29-1.29,2.82-2.32,4.54-3.06
					c1.74-0.75,3.62-1.13,5.59-1.13c1.97,0,3.85,0.38,5.59,1.13c1.72,0.74,3.25,1.77,4.54,3.06c1.29,1.29,2.32,2.82,3.06,4.54
					c0.75,1.74,1.13,3.62,1.13,5.59c0,1.97-0.38,3.85-1.13,5.59c-0.74,1.72-1.77,3.25-3.06,4.54c-1.29,1.29-2.82,2.32-4.54,3.06
					C136.18,78.27,134.3,78.64,132.33,78.64z M132.33,55.18c-1.27,0-2.46,0.24-3.55,0.71c-1.11,0.48-2.09,1.14-2.92,1.97
					c-0.83,0.83-1.49,1.81-1.97,2.92c-0.47,1.09-0.71,2.28-0.71,3.55c0,1.27,0.24,2.46,0.71,3.55c0.48,1.11,1.14,2.09,1.97,2.92
					c0.83,0.83,1.81,1.49,2.92,1.97c1.09,0.47,2.28,0.71,3.55,0.71c1.27,0,2.46-0.24,3.55-0.71c1.11-0.48,2.09-1.14,2.92-1.97
					c0.83-0.83,1.49-1.81,1.97-2.92c0.47-1.09,0.71-2.28,0.71-3.55c0-1.27-0.24-2.46-0.71-3.55c-0.48-1.11-1.14-2.09-1.97-2.92
					c-0.83-0.83-1.81-1.49-2.92-1.97C134.79,55.42,133.6,55.18,132.33,55.18z"/>
			</g>
		</g>
	</g>
	<g>
		<path class="st8" d="M39.66,100c-0.89,0-1.74-0.17-2.52-0.51c-0.78-0.34-1.47-0.8-2.06-1.39c-0.58-0.58-1.05-1.28-1.38-2.06
			c-0.34-0.78-0.51-1.63-0.51-2.52c0-0.89,0.17-1.74,0.51-2.53c0.33-0.78,0.8-1.47,1.38-2.06c0.59-0.58,1.28-1.05,2.06-1.39
			c1.57-0.67,3.49-0.67,5.03-0.01c0.77,0.33,1.46,0.79,2.05,1.37c0.11,0.1,0.16,0.24,0.17,0.39c0,0.15-0.06,0.29-0.26,0.46
			l-0.44,0.45c-0.12,0.15-0.46,0.15-0.68-0.07c-0.43-0.43-0.93-0.76-1.49-1c-1.13-0.47-2.55-0.48-3.68,0.01
			c-0.57,0.25-1.08,0.59-1.51,1.02c-0.43,0.43-0.77,0.93-1.02,1.51c-0.25,0.57-0.37,1.19-0.37,1.84c0,0.66,0.12,1.28,0.37,1.84
			c0.25,0.57,0.59,1.08,1.02,1.51c0.43,0.43,0.94,0.77,1.51,1.02c1.14,0.49,2.56,0.49,3.68,0.01c0.56-0.24,1.07-0.57,1.49-1
			c0.1-0.1,0.24-0.16,0.39-0.16l0,0c0.14,0,0.29,0.06,0.39,0.16l0.45,0.45c0.1,0.11,0.16,0.25,0.16,0.39c0,0.15-0.06,0.29-0.17,0.39
			c-0.59,0.58-1.28,1.04-2.05,1.37C41.39,99.83,40.55,100,39.66,100z"/>
		<path class="st8" d="M59.03,99.75c0,0-0.01,0-0.01,0h-0.7c-0.22,0-0.42-0.13-0.51-0.33l-0.86-2.06l-6.54,0.01l-0.86,2.05
			c-0.09,0.2-0.29,0.33-0.51,0.33h-0.7c-0.19,0-0.36-0.09-0.46-0.25c-0.1-0.16-0.12-0.35-0.05-0.52l4.92-11.34
			c0.09-0.2,0.29-0.33,0.51-0.33h0.83c0.22,0,0.42,0.13,0.51,0.33l4.88,11.25c0.06,0.09,0.1,0.2,0.1,0.31
			C59.58,99.5,59.33,99.75,59.03,99.75z M51.18,95.64h5.01l-2.5-5.73L51.18,95.64z"/>
		<path class="st8" d="M67.82,100c-0.66,0-1.29-0.1-1.88-0.28c-0.58-0.19-1.11-0.45-1.55-0.77c-0.46-0.33-0.83-0.73-1.1-1.18
			c-0.28-0.47-0.42-0.99-0.42-1.53c0-0.3,0.25-0.55,0.55-0.55h0.64c0.3,0,0.55,0.25,0.55,0.55c0,0.25,0.07,0.48,0.21,0.7
			c0.16,0.25,0.38,0.47,0.65,0.66c0.29,0.2,0.64,0.36,1.03,0.47c0.8,0.24,1.82,0.23,2.62,0.01c0.39-0.11,0.74-0.26,1.03-0.45
			c0.27-0.18,0.48-0.39,0.64-0.64c0.14-0.23,0.21-0.48,0.21-0.76c0-0.27-0.06-0.49-0.2-0.69c-0.15-0.22-0.37-0.41-0.64-0.58
			c-0.3-0.18-0.65-0.33-1.06-0.45c-0.43-0.13-0.9-0.23-1.39-0.31c-0.58-0.09-1.14-0.22-1.66-0.38c-0.54-0.17-1.02-0.39-1.43-0.66
			c-0.44-0.29-0.79-0.64-1.04-1.05c-0.27-0.43-0.4-0.93-0.4-1.49c0-0.55,0.13-1.06,0.39-1.52c0.25-0.44,0.6-0.82,1.03-1.13
			c0.42-0.3,0.91-0.54,1.46-0.7c1.09-0.32,2.41-0.32,3.5,0.03c0.55,0.18,1.04,0.42,1.45,0.73c0.43,0.32,0.77,0.7,1.02,1.13
			c0.26,0.46,0.39,0.95,0.39,1.46c0,0.3-0.25,0.55-0.55,0.55h-0.64c-0.31,0-0.55-0.25-0.55-0.55c0-0.23-0.06-0.44-0.19-0.65
			c-0.14-0.23-0.33-0.42-0.58-0.59c-0.26-0.18-0.58-0.33-0.93-0.44c-0.73-0.22-1.65-0.21-2.38-0.02c-0.36,0.1-0.67,0.23-0.92,0.41
			c-0.24,0.16-0.43,0.36-0.57,0.59c-0.13,0.21-0.19,0.44-0.19,0.7c0,0.24,0.06,0.44,0.18,0.62c0.14,0.21,0.34,0.39,0.58,0.54
			c0.27,0.16,0.6,0.31,0.97,0.42c0.39,0.12,0.8,0.21,1.22,0.27c0.64,0.1,1.24,0.24,1.8,0.41c0.58,0.18,1.09,0.41,1.53,0.69
			c0.47,0.3,0.84,0.67,1.11,1.1c0.28,0.45,0.43,0.97,0.43,1.56c0,0.57-0.14,1.11-0.42,1.59c-0.27,0.47-0.64,0.87-1.11,1.19
			c-0.45,0.31-0.97,0.55-1.56,0.72C69.1,99.91,68.47,100,67.82,100z"/>
		<path class="st8" d="M83.41,100c-0.89,0-1.74-0.17-2.53-0.51c-0.78-0.34-1.47-0.8-2.06-1.39c-0.58-0.58-1.05-1.28-1.39-2.06
			c-0.34-0.78-0.51-1.63-0.51-2.52c0-0.89,0.17-1.74,0.51-2.53c0.34-0.78,0.8-1.47,1.39-2.06c0.58-0.58,1.28-1.05,2.06-1.39
			c1.57-0.67,3.49-0.67,5.03-0.01c0.77,0.33,1.46,0.79,2.04,1.37c0.11,0.1,0.16,0.24,0.17,0.39c0,0.15-0.06,0.29-0.16,0.39
			l-0.45,0.45c-0.22,0.22-0.56,0.22-0.78,0c-0.43-0.43-0.93-0.76-1.49-1c-1.13-0.47-2.55-0.48-3.68,0.01
			c-0.57,0.25-1.08,0.59-1.51,1.02c-0.43,0.43-0.77,0.93-1.02,1.51c-0.25,0.57-0.37,1.19-0.37,1.84c0,0.66,0.12,1.28,0.37,1.84
			c0.25,0.57,0.59,1.08,1.02,1.51c0.43,0.43,0.94,0.77,1.51,1.02c1.13,0.49,2.56,0.49,3.68,0.01c0.56-0.24,1.07-0.57,1.49-1
			c0.1-0.1,0.24-0.16,0.39-0.16l0,0c0.15,0,0.29,0.06,0.39,0.16l0.45,0.45c0.1,0.11,0.16,0.25,0.16,0.39c0,0.15-0.06,0.29-0.17,0.39
			c-0.59,0.58-1.28,1.04-2.04,1.37C85.14,99.83,84.3,100,83.41,100z"/>
		<path class="st8" d="M112.39,99.75h-4.07c-0.31,0-0.55-0.25-0.55-0.55V87.85c0-0.3,0.25-0.55,0.55-0.55h4.07
			c0.85,0,1.66,0.16,2.42,0.49c0.75,0.32,1.42,0.77,1.98,1.33c0.56,0.56,1,1.22,1.33,1.98c0.33,0.76,0.49,1.57,0.49,2.42
			c0,0.86-0.17,1.68-0.49,2.43c-0.32,0.75-0.77,1.41-1.33,1.97c-0.56,0.56-1.22,1.01-1.98,1.33
			C114.05,99.58,113.24,99.75,112.39,99.75z M109.5,98h2.88c0.61,0,1.2-0.12,1.74-0.35c0.54-0.23,1.02-0.55,1.42-0.96
			c0.4-0.41,0.73-0.89,0.97-1.44c0.24-0.54,0.35-1.12,0.35-1.74c0-0.61-0.12-1.2-0.35-1.74c-0.24-0.55-0.56-1.03-0.96-1.43
			c-0.4-0.4-0.88-0.73-1.43-0.96c-0.54-0.24-1.13-0.35-1.74-0.35h-2.88V98z"/>
		<path class="st8" d="M141.88,100c-0.66,0-1.29-0.1-1.87-0.28c-0.59-0.19-1.11-0.45-1.55-0.77c-0.46-0.33-0.83-0.73-1.09-1.18
			c-0.28-0.47-0.42-0.99-0.42-1.53c0-0.3,0.25-0.55,0.55-0.55h0.64c0.3,0,0.55,0.25,0.55,0.55c0,0.25,0.07,0.48,0.21,0.71
			c0.16,0.25,0.38,0.47,0.65,0.66c0.29,0.2,0.64,0.36,1.03,0.47c0.8,0.24,1.82,0.23,2.62,0.01c0.39-0.11,0.74-0.26,1.03-0.45
			c0.27-0.18,0.48-0.39,0.64-0.64c0.15-0.23,0.21-0.48,0.21-0.76c0-0.27-0.06-0.49-0.2-0.69c-0.15-0.22-0.37-0.41-0.64-0.58
			c-0.3-0.18-0.65-0.33-1.06-0.45c-0.43-0.13-0.9-0.23-1.39-0.31c-0.58-0.09-1.14-0.22-1.66-0.38c-0.54-0.17-1.02-0.39-1.43-0.66
			c-0.44-0.29-0.79-0.64-1.04-1.05c-0.27-0.43-0.4-0.93-0.4-1.49c0-0.55,0.13-1.07,0.39-1.52c0.25-0.44,0.6-0.82,1.02-1.13
			c0.42-0.3,0.91-0.54,1.47-0.7c1.09-0.32,2.41-0.32,3.5,0.03c0.55,0.18,1.04,0.42,1.45,0.73c0.43,0.32,0.77,0.7,1.02,1.13
			c0.26,0.46,0.39,0.95,0.39,1.46c0,0.3-0.25,0.55-0.55,0.55h-0.64c-0.15,0-0.29-0.06-0.39-0.16c-0.1-0.1-0.16-0.24-0.16-0.39
			c0-0.23-0.06-0.44-0.19-0.65c-0.14-0.23-0.33-0.42-0.58-0.59c-0.26-0.18-0.58-0.33-0.94-0.44c-0.73-0.22-1.65-0.21-2.38-0.02
			c-0.36,0.1-0.67,0.23-0.92,0.41c-0.24,0.16-0.43,0.36-0.57,0.59c-0.13,0.21-0.19,0.44-0.19,0.7c0,0.24,0.06,0.44,0.18,0.62
			c0.14,0.21,0.34,0.39,0.58,0.54c0.27,0.17,0.6,0.31,0.97,0.42c0.39,0.12,0.8,0.21,1.22,0.27c0.64,0.1,1.24,0.24,1.8,0.41
			c0.58,0.18,1.09,0.41,1.53,0.69c0.47,0.3,0.84,0.67,1.11,1.1c0.29,0.45,0.43,0.97,0.43,1.56c0,0.57-0.14,1.11-0.41,1.59
			c-0.27,0.47-0.64,0.87-1.11,1.19c-0.44,0.31-0.97,0.55-1.56,0.72C143.16,99.91,142.53,100,141.88,100z"/>
		<path class="st8" d="M102.78,99.75c0,0-0.01,0-0.01,0h-0.7c-0.22,0-0.42-0.13-0.51-0.33l-0.86-2.06l-6.54,0.01l-0.85,2.05
			c-0.09,0.2-0.29,0.33-0.51,0.33h-0.7c-0.19,0-0.36-0.09-0.46-0.25c-0.1-0.16-0.12-0.35-0.04-0.52l4.92-11.34
			c0.09-0.2,0.29-0.33,0.51-0.33h0.83c0.22,0,0.42,0.13,0.51,0.33l4.88,11.25c0.06,0.09,0.1,0.2,0.1,0.31
			C103.33,99.5,103.09,99.75,102.78,99.75z M94.93,95.64h5.01l-2.5-5.73L94.93,95.64z"/>
		<path class="st8" d="M133.08,99.75C133.08,99.75,133.08,99.74,133.08,99.75h-0.71c-0.22,0-0.42-0.13-0.5-0.33l-0.86-2.06
			l-6.54,0.01l-0.86,2.05c-0.09,0.2-0.29,0.33-0.51,0.33h-0.7c-0.19,0-0.36-0.09-0.46-0.25c-0.1-0.16-0.12-0.35-0.05-0.52
			l4.92-11.34c0.09-0.2,0.29-0.33,0.51-0.33h0.83c0.22,0,0.42,0.13,0.5,0.33l4.88,11.25c0.06,0.09,0.1,0.2,0.1,0.31
			C133.64,99.5,133.39,99.75,133.08,99.75z M125.23,95.64h5.01l-2.5-5.73L125.23,95.64z"/>
	</g>
</g>
</svg>
